<svg width="20" height="23" viewBox="0 0 20 23" fill="none" xmlns="http://www.w3.org/2000/svg">
<mask id="mask0" mask-type="alpha" maskUnits="userSpaceOnUse" x="0" y="0" width="20" height="23">
<path fill-rule="evenodd" clip-rule="evenodd" d="M9.99336 22.9894H0V0H9.99336L19.9867 0V22.9894H9.99336Z" fill="white"/>
</mask>
<g mask="url(#mask0)">
<path fill-rule="evenodd" clip-rule="evenodd" d="M4.99366 2.86443H14.9812V7.65613H13.7118L10.3639 3.98475C10.2641 3.87643 10.1203 3.8065 9.96842 3.82181C9.81763 3.82756 9.67778 3.89749 9.5879 4.0135L8.41336 5.51612L7.93996 4.95743C7.85112 4.853 7.72123 4.78874 7.58041 4.78113C7.43659 4.77056 7.3028 4.82137 7.20288 4.91625L4.99366 6.99293V2.86443ZM9.98745 1.26687L10.4868 1.90512H9.48805L9.98745 1.26687ZM10.2261 7.65613L9.06355 6.28281L10.0184 5.06187L12.3845 7.65613H10.2261ZM5.71778 7.65613L7.51052 5.97037L8.93876 7.65613H5.71778ZM4.03389 8.31738C4.04587 8.34418 4.0658 8.36524 4.0828 8.38925C4.10078 8.41606 4.11276 8.44574 4.13771 8.46975C4.13771 8.47162 4.13973 8.47162 4.14071 8.47262C4.19067 8.52049 4.25261 8.556 4.32048 8.57993C4.37546 8.60006 4.43239 8.61249 4.49029 8.6135C4.49232 8.6135 4.49329 8.61443 4.49426 8.61443H15.4806C15.7562 8.61443 15.98 8.39974 15.98 8.13524V2.38524C15.98 2.12074 15.7562 1.90612 15.4806 1.90612H11.7352L10.3869 0.181125C10.1982 -0.060375 9.77569 -0.060375 9.5879 0.181125L8.23958 1.90612H4.49426C4.21861 1.90612 3.99494 2.12074 3.99494 2.38524V8.12662V8.13431V8.13524C3.99494 8.13812 3.99688 8.14006 3.99688 8.14293C3.99793 8.20238 4.00887 8.26174 4.03389 8.31738ZM19.6483 17.5059C18.2201 17.0391 16.9827 15.8125 16.2376 14.1603C16.6791 13.9102 16.9787 13.4531 16.9787 12.9269C16.9787 12.1344 16.3065 11.4894 15.4806 11.4894C14.6546 11.4894 13.9824 12.1344 13.9824 12.9269C13.9824 13.4502 14.2781 13.9044 14.7145 14.1555C13.7328 16.3376 11.943 17.7176 9.9864 17.7176C8.02984 17.7176 6.23913 16.3386 5.25831 14.1565C5.69576 13.9054 5.99239 13.4502 5.99239 12.9269C5.99239 12.1344 5.32026 11.4894 4.49426 11.4894C3.66835 11.4894 2.99614 12.1344 2.99614 12.9269C2.99614 13.454 3.29681 13.9111 3.73921 14.1612C2.99516 15.8096 1.76168 17.0353 0.337484 17.503C0.0768099 17.5893 -0.0619916 17.8614 0.0268474 18.1115C0.0977837 18.3109 0.291566 18.4354 0.499282 18.4354C0.552241 18.4354 0.607147 18.4268 0.66108 18.4105C1.97441 17.9783 3.13696 17.0142 3.99494 15.7186V22.5102C3.99494 22.7747 4.21861 22.9894 4.49426 22.9894C4.76992 22.9894 4.99366 22.7747 4.99366 22.5102V15.7396C6.20617 17.5701 8.0219 18.6769 9.98745 18.6769C11.953 18.6769 13.7687 17.5701 14.9812 15.7387V22.5102C14.9812 22.7747 15.2049 22.9894 15.4806 22.9894C15.7562 22.9894 15.98 22.7747 15.98 22.5102V15.7166C16.8409 17.0171 18.0074 17.9821 19.3268 18.4134C19.3797 18.4316 19.4346 18.4392 19.4875 18.4392C19.6953 18.4392 19.889 18.3137 19.96 18.1134C20.0489 17.8633 19.909 17.5911 19.6483 17.5059ZM12.9837 5.26024C13.535 5.26024 13.9824 4.83093 13.9824 4.30193C13.9824 3.77293 13.535 3.34363 12.9837 3.34363C12.4324 3.34363 11.9849 3.77293 11.9849 4.30193C11.9849 4.83093 12.4324 5.26024 12.9837 5.26024Z" fill="black"/>
</g>
</svg>

