<svg width="16" height="16" viewBox="0 0 16 16" fill="none" xmlns="http://www.w3.org/2000/svg">
<g style="mix-blend-mode:multiply">
<mask id="mask0" mask-type="alpha" maskUnits="userSpaceOnUse" x="0" y="0" width="16" height="16">
<path fill-rule="evenodd" clip-rule="evenodd" d="M15.9504 0.0493164V15.8349H0V0.0493164H15.9504V0.0493164Z" fill="white"/>
</mask>
<g mask="url(#mask0)">
<path fill-rule="evenodd" clip-rule="evenodd" d="M11.8097 1.0198C7.9531 -1.07226 3.09488 0.330423 0.980636 4.14694C-1.13361 7.9638 0.284562 12.7716 4.14141 14.8642C7.99741 16.9567 12.8556 15.5534 14.9692 11.7369C17.0843 7.92004 15.6662 3.11171 11.8097 1.0198Z" fill="black"/>
</g>
<path fill-rule="evenodd" clip-rule="evenodd" d="M13.9476 11.1827C13.924 11.2254 13.898 11.2665 13.8737 11.309L12.6471 10.6298C12.5709 10.5874 12.4857 10.5722 12.4031 10.5815C12.3208 10.5914 12.2412 10.6261 12.1779 10.6848L9.85502 12.8126C9.72662 12.9297 9.68993 13.1152 9.76281 13.2714L10.2415 14.2978C9.1559 14.6768 7.97699 14.7828 6.81806 14.585L7.01803 13.5856C7.05203 13.4168 6.97118 13.2452 6.81965 13.1613L4.05749 11.6319C3.98122 11.5896 3.89624 11.5743 3.8136 11.584C3.73096 11.5937 3.65185 11.6285 3.5887 11.6869L2.83949 12.3734C2.11152 11.5469 1.6062 10.563 1.35199 9.51761L2.49751 9.3823C2.67057 9.36292 2.81063 9.23362 2.84463 9.06502L3.46015 5.99263C3.49429 5.82373 3.41355 5.65182 3.26172 5.56815L1.93302 4.8327C1.95615 4.78915 1.97724 4.7448 2.00146 4.70139C2.58479 3.6483 3.4115 2.81232 4.37395 2.22032L4.78611 3.08427C4.86028 3.2404 5.02745 3.33087 5.20051 3.30907L8.33955 2.91256C8.51261 2.89075 8.65088 2.76131 8.68378 2.59192L8.93689 1.26831C9.72627 1.37945 10.509 1.6295 11.2497 2.03124C11.8333 2.34788 12.3506 2.73828 12.7985 3.18234L11.6845 4.22053C11.5574 4.33892 11.5217 4.52459 11.5963 4.68023L12.9477 7.51282C13.0218 7.6688 13.1893 7.75892 13.3624 7.73761L14.7746 7.55924C14.8462 8.77851 14.5851 10.0322 13.9476 11.1827Z" fill="white"/>
<path fill-rule="evenodd" clip-rule="evenodd" d="M9.51781 5.41268C9.48063 5.33469 9.42036 5.27283 9.34779 5.23352C9.27457 5.19376 9.18988 5.17639 9.10355 5.18774L5.96387 5.58366C5.79101 5.6062 5.65159 5.73485 5.61969 5.90454L5.02998 8.98151C4.99744 9.15106 5.07893 9.32233 5.2321 9.4052L8.00698 10.9108C8.1601 10.9936 8.34881 10.9699 8.47606 10.8516L10.7805 8.70478C10.9071 8.58639 10.943 8.40091 10.869 8.24527L9.51781 5.41268Z" fill="black"/>
</g>
</svg>

