<svg width="19" height="18" viewBox="0 0 19 18" fill="none" xmlns="http://www.w3.org/2000/svg">
<mask id="mask0" mask-type="alpha" maskUnits="userSpaceOnUse" x="0" y="0" width="19" height="18">
<path fill-rule="evenodd" clip-rule="evenodd" d="M0 17.9968H18.9645V0H0V17.9968Z" fill="white"/>
</mask>
<g mask="url(#mask0)">
<path fill-rule="evenodd" clip-rule="evenodd" d="M9.59123 6.5792C9.56589 6.6048 9.56589 6.6304 9.54056 6.656C9.51523 6.6304 9.51523 6.6048 9.48989 6.5792C8.37523 4.6336 5.63923 5.2224 5.63923 7.6032C5.63923 9.7792 9.54056 12.3648 9.54056 12.3648C9.54056 12.3648 13.4419 9.7792 13.4419 7.6032C13.4419 5.2224 10.7059 4.6336 9.59123 6.5792ZM9.54056 1.28C5.03123 1.28 1.38323 4.4544 1.38323 8.3712C1.38323 10.0096 2.04189 11.5968 3.23256 12.8768C3.78989 13.4656 3.20723 14.3104 2.24456 15.6928C2.06723 15.9744 1.81389 16.3072 1.63656 16.6144C2.54856 16.3584 3.96723 15.8208 4.82856 15.5136C5.99389 15.0784 6.19656 15.0016 6.39923 15.0016H6.50056L6.60189 15.0272C7.53923 15.3344 8.52723 15.5136 9.54056 15.5136C14.0499 15.5136 17.6979 12.3392 17.6979 8.4224C17.6979 4.5056 14.0499 1.28 9.54056 1.28ZM0.901892 17.9968C0.673892 17.9968 0.496559 17.9456 0.344559 17.8432C0.167225 17.7152 0.0658921 17.5616 0.0152254 17.3568C-0.0861079 16.8192 0.319225 16.2048 1.20589 14.9504C1.48456 14.5408 1.94056 13.8752 2.11789 13.5424C0.825892 12.0832 0.116559 10.2656 0.116559 8.3712C0.116559 3.7632 4.34723 0 9.54056 0C14.7339 0 18.9646 3.7632 18.9646 8.3712C18.9646 12.9792 14.7339 16.7424 9.54056 16.7424C8.45123 16.7424 7.38723 16.5888 6.37389 16.256C6.14589 16.3328 5.68989 16.512 5.25923 16.6656C3.33389 17.408 1.66189 17.9968 0.901892 17.9968Z" fill="black"/>
</g>
</svg>

