<svg width="19" height="16" viewBox="0 0 19 16" fill="none" xmlns="http://www.w3.org/2000/svg">
<path fill-rule="evenodd" clip-rule="evenodd" d="M18.1992 14.4669H0.775302C0.346846 14.4669 0 14.8043 0 15.221C0 15.6378 0.346846 15.995 0.775302 15.995H18.1788C18.6072 15.995 18.9541 15.6576 18.9541 15.2409C18.9541 14.8241 18.6277 14.4669 18.1992 14.4669Z" fill="black"/>
<path fill-rule="evenodd" clip-rule="evenodd" d="M1.57099 11.8078C1.673 7.66015 5.18226 4.30636 9.48723 4.30636C13.7922 4.30636 17.3015 7.66015 17.4035 11.8078H1.57099ZM7.81421 2.85767C7.81421 2.00434 8.52831 1.32961 9.40562 1.32961C10.2829 1.32961 10.997 2.02419 10.997 2.85767V2.87752C10.7114 2.83783 10.4054 2.79814 10.0993 2.77829H8.93636C8.56911 2.79814 8.20186 2.83783 7.85502 2.91721V2.85767H7.81421ZM18.9541 11.5895V11.4505C18.9541 11.3513 18.9337 11.2521 18.9337 11.1727C18.9337 11.1132 18.9337 11.0735 18.9133 11.014C18.9133 10.9346 18.8929 10.8353 18.8725 10.756C18.8725 10.6964 18.8521 10.6567 18.8521 10.5972C18.8317 10.498 18.8113 10.3988 18.8113 10.3194C18.8113 10.2797 18.7909 10.24 18.7909 10.2003C18.7705 10.0614 18.7296 9.94233 18.7092 9.80341C18.7092 9.76372 18.6888 9.74388 18.6888 9.70419C18.6684 9.60496 18.6276 9.50574 18.6072 9.42636C18.5868 9.36682 18.5664 9.32713 18.5664 9.2676C18.546 9.18822 18.5256 9.10884 18.4848 9.02946C18.4644 8.96992 18.444 8.93023 18.4236 8.8707C18.4032 8.79132 18.3624 8.73178 18.342 8.6524C18.3216 8.59287 18.3012 8.55318 18.2808 8.49364C18.24 8.41426 18.2196 8.33488 18.1788 8.27535C18.1584 8.23566 18.138 8.17612 18.1176 8.13643C18.0564 8.01736 18.0156 7.91814 17.9543 7.79907C17.9339 7.73953 17.8931 7.68 17.8523 7.62047C17.8115 7.56093 17.7911 7.5014 17.7503 7.44186C17.7095 7.38233 17.6687 7.32279 17.6483 7.26326C17.6075 7.20372 17.5871 7.16403 17.5463 7.1045C17.5055 7.04496 17.4647 6.98543 17.4239 6.92589C17.4035 6.8862 17.3627 6.84651 17.3423 6.78698C17.3015 6.72744 17.2607 6.64806 17.1994 6.58853C17.179 6.56868 17.1586 6.52899 17.1382 6.50915C17.0158 6.35039 16.8934 6.21147 16.771 6.05271L16.7302 6.01302C16.669 5.93364 16.6078 5.87411 16.5466 5.81457C16.5262 5.79473 16.5058 5.75504 16.4854 5.73519C16.4241 5.67566 16.3629 5.59628 16.3017 5.53674C16.2813 5.5169 16.2609 5.49705 16.2405 5.47721C16.1793 5.41767 16.0977 5.33829 16.0365 5.27876C16.0161 5.25891 16.0161 5.25891 15.9957 5.23907C15.6692 4.9414 15.302 4.64372 14.9143 4.38574C14.8939 4.38574 14.8939 4.36589 14.8735 4.36589C14.7715 4.30636 14.6899 4.24682 14.5879 4.18729L14.5675 4.16744C14.0574 3.84992 13.527 3.59194 12.9761 3.37364H12.9557C12.8537 3.33395 12.7313 3.29426 12.6292 3.25457V3.01643C12.6292 1.34946 11.2419 0 9.50763 0C7.79381 0 6.40643 1.34946 6.40643 3.01643V3.23473C6.28401 3.27442 6.182 3.31411 6.05958 3.3538H6.03918C5.4679 3.57209 4.93743 3.83008 4.42737 4.1476C4.42737 4.1476 4.40696 4.1476 4.40696 4.16744C4.30495 4.22698 4.22334 4.28651 4.12133 4.34605L4.10092 4.36589C3.71327 4.62388 3.36643 4.90171 3.01958 5.21922C2.99918 5.23907 2.99918 5.23907 2.97878 5.25891C2.89716 5.31845 2.83596 5.39783 2.77475 5.45736C2.75435 5.47721 2.73394 5.49705 2.71354 5.5169C2.65233 5.57643 2.59112 5.65581 2.50951 5.71535C2.48911 5.73519 2.46871 5.75504 2.44831 5.79473C2.3871 5.87411 2.32589 5.93364 2.26468 6.01302L2.24428 6.03287C2.12186 6.19163 1.97904 6.35039 1.85663 6.50915C1.83622 6.52899 1.81582 6.56868 1.79542 6.58853C1.75461 6.64806 1.69341 6.72744 1.6526 6.78698C1.6322 6.82667 1.59139 6.86636 1.57099 6.90605C1.53018 6.96558 1.48938 7.02512 1.44857 7.08465C1.40777 7.12434 1.38737 7.18388 1.34656 7.22357C1.30575 7.2831 1.26495 7.34264 1.24455 7.40217C1.20374 7.46171 1.18334 7.52124 1.14253 7.58078C1.10173 7.64031 1.08133 7.69984 1.04052 7.75938C0.979312 7.8586 0.918104 7.97767 0.877298 8.09674C0.856896 8.13643 0.836493 8.19597 0.81609 8.23566C0.775285 8.31504 0.754882 8.37457 0.714077 8.45395C0.693674 8.51349 0.673272 8.55318 0.652869 8.61271C0.632466 8.69209 0.591661 8.75163 0.571258 8.83101C0.550856 8.89054 0.530453 8.93023 0.51005 8.98977C0.489648 9.06915 0.448842 9.14853 0.428439 9.22791C0.408037 9.28744 0.387634 9.32713 0.387634 9.38667C0.367231 9.48589 0.326426 9.58512 0.306023 9.6645C0.306023 9.70419 0.285621 9.72403 0.285621 9.76372C0.244815 9.88279 0.224413 10.0217 0.20401 10.1606C0.20401 10.2003 0.183607 10.24 0.183607 10.2797C0.163205 10.3789 0.142802 10.4583 0.142802 10.5575C0.142802 10.5972 0.122399 10.6567 0.122399 10.7163C0.101996 10.7957 0.101996 10.8949 0.0815938 10.9743C0.0815938 11.0338 0.0611911 11.0735 0.0611911 11.133C0.0611911 11.2322 0.0407884 11.3315 0.0407884 11.4109V11.5498C0.0407884 11.6887 0.0203857 11.8276 0.0203857 11.9665V12.5222C0.0203857 12.9389 0.367231 13.2763 0.795688 13.2763H18.1992C18.6276 13.2763 18.9745 12.9389 18.9745 12.5222V11.9665C18.9745 11.8673 18.9745 11.7284 18.9541 11.5895Z" fill="black"/>
</svg>

