<svg width="17" height="16" viewBox="0 0 17 16" fill="none" xmlns="http://www.w3.org/2000/svg">
<path fill-rule="evenodd" clip-rule="evenodd" d="M15.9919 0L0 2.8809L0.700502 6.656L16.6926 3.77515L15.9919 0ZM11.8696 1.76025L13.65 1.43965L12.1526 3.5751L10.3722 3.89575L11.8696 1.76025ZM15.241 1.51865L15.5104 2.97025L14.037 3.23575L15.241 1.51865ZM8.20456 2.42055L9.98509 2.0998L8.48772 4.23525L6.70734 4.55605L8.20456 2.42055ZM4.53976 3.0809L6.32019 2.7601L4.82277 4.89575L3.04239 5.2164L4.53976 3.0809ZM1.18198 3.68555L2.65545 3.4202L1.45139 5.1372L1.18198 3.68555Z" fill="black"/>
<path fill-rule="evenodd" clip-rule="evenodd" d="M0.700378 16H16.9577V6.65601H0.700378V16ZM2.06753 11.8286H15.6029V7.99081H2.06753V11.8286Z" fill="black"/>
</svg>

