<svg width="18" height="18" viewBox="0 0 18 18" fill="none" xmlns="http://www.w3.org/2000/svg">
<mask id="mask0" mask-type="alpha" maskUnits="userSpaceOnUse" x="0" y="0" width="18" height="18">
<path fill-rule="evenodd" clip-rule="evenodd" d="M0 0V18H17.9692V0L0 0L0 0Z" fill="white"/>
</mask>
<g mask="url(#mask0)">
<path fill-rule="evenodd" clip-rule="evenodd" d="M14.3872 14.4032C13.2263 14.4032 12.2821 13.4864 12.2821 12.3593C12.2821 11.2323 13.2263 10.3155 14.3872 10.3155C15.548 10.3155 16.4922 11.2323 16.4922 12.3593C16.4922 13.4864 15.548 14.4032 14.3872 14.4032ZM7.16402 3.50792L16.4922 1.60082V3.44859L7.16402 5.35539V3.50792ZM3.58202 16.566C2.4214 16.566 1.47686 15.6492 1.47686 14.5222C1.47686 13.3952 2.42117 12.4784 3.58202 12.4784C4.74286 12.4784 5.68709 13.3952 5.68709 14.5222C5.68709 15.6492 4.74263 16.566 3.58202 16.566ZM17.9692 0.717168C17.9692 0.500943 17.8688 0.296718 17.6962 0.160368C17.5232 0.0243177 17.2959 -0.0294573 17.0786 0.0156177L6.27348 2.22437C5.93179 2.29419 5.68709 2.58699 5.68709 2.92592V6.23882V11.714C5.09532 11.2944 4.36917 11.0439 3.58202 11.0439C1.60686 11.0439 -6.10352e-05 12.6041 -6.10352e-05 14.522C-6.10352e-05 16.4398 1.60686 18 3.58202 18C5.55717 18 7.16402 16.4398 7.16402 14.522V6.82112L16.4922 4.91402V9.55157C15.9006 9.13202 15.1744 8.88122 14.3872 8.88122C12.4122 8.88122 10.8052 10.4415 10.8052 12.3593C10.8052 14.2772 12.412 15.8374 14.3872 15.8374C16.3623 15.8374 17.9692 14.2769 17.9692 12.3593V4.07642C17.9692 4.06922 17.9672 4.06232 17.967 4.05512C17.9672 4.04672 17.9692 4.03877 17.9692 4.03037V0.717168Z" fill="black"/>
</g>
</svg>

