<svg width="18" height="23" viewBox="0 0 18 23" fill="none" xmlns="http://www.w3.org/2000/svg">
<path fill-rule="evenodd" clip-rule="evenodd" d="M1.62537 6.85384C2.25561 6.95538 3.31707 6.88768 4.41171 5.90615C4.94244 5.39845 5.53951 5.49999 5.83805 5.56768C6.30244 5.70307 6.60098 6.00768 6.66732 6.24461C7.0322 7.6323 6.43512 8.10614 5.6722 8.71538C5.00878 9.22307 4.04683 10.0354 4.71024 11.4569C5.07512 12.2015 5.17463 12.7431 5.04195 13.0815C4.90927 13.3523 4.57756 13.6231 3.94732 13.86C2.35512 12.7769 1.32683 10.9154 1.32683 8.81691C1.32683 8.10614 1.42634 7.46307 1.62537 6.85384ZM7.29756 2.69076C8.39219 2.69076 9.38732 2.99538 10.2829 3.50307C9.65268 3.90922 9.2878 4.5523 9.2878 5.39845C9.2878 6.58307 9.78537 7.56461 10.2166 8.34307C10.4488 8.81691 10.7473 9.35845 10.681 9.56153C10.3493 10.4754 10.3824 11.3554 10.7805 11.9646C10.9795 12.2354 11.3112 12.54 11.8751 12.7092C10.7805 14.0292 9.15512 14.8754 7.33073 14.8754C6.70049 14.8754 6.07024 14.7738 5.47317 14.5708C5.80488 14.3338 6.10341 13.9954 6.30244 13.5892C6.60098 12.8446 6.46829 11.9985 5.93756 10.8477C5.73854 10.4754 5.77171 10.3738 6.50146 9.76461C7.33073 9.12153 8.55805 8.13999 7.96098 5.8723C7.76195 5.12768 7.09854 4.51845 6.2361 4.24768C5.27415 3.94307 4.31219 4.17999 3.54927 4.85691C3.08488 5.29691 2.62049 5.4323 2.28878 5.46615C3.31707 3.84153 5.17463 2.69076 7.29756 2.69076ZM13.2683 8.78307C13.2683 9.76461 13.0361 10.6785 12.638 11.4908C12.3395 11.4908 12.0078 11.4231 11.842 11.1861C11.6761 10.9492 11.7093 10.5092 11.8751 10.0354C12.1737 9.25691 11.7756 8.47845 11.3444 7.69999C10.9795 7.02307 10.5815 6.24461 10.5815 5.39845C10.5815 4.9923 10.7473 4.75538 11.079 4.58614C11.2117 4.51845 11.3112 4.48461 11.4439 4.45076C12.5717 5.56768 13.2683 7.09076 13.2683 8.78307ZM7.29756 16.2292C11.3112 16.2292 14.5951 12.8785 14.5951 8.78307C14.5951 4.68768 11.3112 1.33691 7.29756 1.33691C3.2839 1.33691 0 4.68768 0 8.78307C0 12.8785 3.2839 16.2292 7.29756 16.2292Z" fill="black"/>
<mask id="mask0" mask-type="alpha" maskUnits="userSpaceOnUse" x="0" y="0" width="17" height="22">
<path fill-rule="evenodd" clip-rule="evenodd" d="M0.364868 21.9831H16.9171V11.0445V0.105835H0.364868V21.9831H0.364868Z" fill="white"/>
</mask>
<g mask="url(#mask0)">
<path fill-rule="evenodd" clip-rule="evenodd" d="M16.9171 8.78315C16.9171 5.19546 14.9932 1.91238 11.9415 0.186226C11.6097 0.0169955 11.2117 0.118534 11.0458 0.456996C10.88 0.795457 10.9795 1.20161 11.3112 1.37084C13.9649 2.86007 15.6234 5.70315 15.6234 8.78315C15.6234 13.4539 11.9083 17.2447 7.33072 17.2447C5.14145 17.2447 3.0517 16.3647 1.49267 14.8078C1.22731 14.537 0.796088 14.537 0.563893 14.8078C0.298527 15.0785 0.298527 15.5185 0.563893 15.7555C2.22243 17.4139 4.37853 18.3955 6.66731 18.5647V20.6293H4.67706C4.31219 20.6293 4.01365 20.9339 4.01365 21.3062C4.01365 21.6785 4.31219 21.9831 4.67706 21.9831H10.0176C10.3824 21.9831 10.681 21.6785 10.681 21.3062C10.681 20.9339 10.3824 20.6293 10.0176 20.6293H7.99414V18.5647C12.9697 18.2262 16.9171 13.9955 16.9171 8.78315Z" fill="black"/>
</g>
</svg>

